# xmcd
#
# Track frame offsets:
#	150
#	16011
#	27167
#	36979
#	46699
#	59141
#	75332
#	84289
#	98321
#	111353
#	120606
#	132104
#	142145
#	155538
#	170547
#	183350
#	194378
#	207554
#	218404
#	229487
#	239902
#	255374
#	266442
#	276728
#	284319
#
# Disc length: 4033 seconds
#
# Revision: 0
# Processed by: cddbd v1.5.2PL0 Copyright (c) Steve Scherf et al.
# Submitted via: EasyCDDAExtractor 12.0.4.1
#
DISCID=660fbf19
DTITLE=Various Artist - 25 grands classiques du Country - Volume 2
DYEAR=2001
DGENRE=Western
TTITLE0=Real Robert - Ne me dis pas adieu
TTITLE1=Paul Brunelle - Tu m'aimes, tu m'adores
TTITLE2=Marcel Martel - Fausse promesse
TTITLE3=Jocelyne Beland - Le reve de ma vie
TTITLE4=Aldei Duguay - M'aimeras-tu toujours
TTITLE5=Gerald Poudrier - Je me sens bien
TTITLE6=Sylvie Plouffe - Tu es toute ma vie
TTITLE7=Rene Dore (Mexican Joe) - L'histoire d'une jeune fille
TTITLE8=Arthur Simoneau - Je suis fier de mes montagnes
TTITLE9=Gaetan Richard - Le merveilleux chateau
TTITLE10=Monique Gadoua - Je quitte mes parents
TTITLE11=Camille Breton - Reviens dans mes bras
TTITLE12=Ade Gagnon - Trop jeune pour mourir
TTITLE13=Miche - Bonjour mon amour
TTITLE14=Yves Ranger - Mon premier amour
TTITLE15=Andre Hebert - La petite au bonnet bleu
TTITLE16=Germaine Riendeau - Le bonheur est passe
TTITLE17=Larry Robichaud - Rose de mon coeur
TTITLE18=Charles Martineau - Derriere les barreaux
TTITLE19=Sylvie Bourbeau - Je suis en amour
TTITLE20=Etienne Ricard - La terre n"est qu'une vallee de larmes
TTITLE21=Edouard Castonguay - Adieu pays de mes amours
TTITLE22=Simone Aube - Le visage de l'amour
TTITLE23=Raymond Rouleau - Vos noces d'argent
TTITLE24=Al King - Le cowboy des pauvres
EXTD=
EXTT0=
EXTT1=
EXTT2=
EXTT3=
EXTT4=
EXTT5=
EXTT6=
EXTT7=
EXTT8=
EXTT9=
EXTT10=
EXTT11=
EXTT12=
EXTT13=
EXTT14=
EXTT15=
EXTT16=
EXTT17=
EXTT18=
EXTT19=
EXTT20=
EXTT21=
EXTT22=
EXTT23=
EXTT24=
PLAYORDER=
